<svg xmlns="http://www.w3.org/2000/svg" xmlns:xlink="http://www.w3.org/1999/xlink" width="400" zoomAndPan="magnify" viewBox="0 0 300 306.749988" height="409" preserveAspectRatio="xMidYMid meet" version="1.0"><defs><g/><clipPath id="e6b2d6ff9b"><path d="M 0.121094 0 L 299.875 0 L 299.875 306.5 L 0.121094 306.5 Z M 0.121094 0 " clip-rule="nonzero"/></clipPath><clipPath id="8b8d795121"><path d="M 245.339844 113 L 255 113 L 255 128 L 245.339844 128 Z M 245.339844 113 " clip-rule="nonzero"/></clipPath><clipPath id="8e4d4dae2b"><path d="M 267 113 L 276.066406 113 L 276.066406 128 L 267 128 Z M 267 113 " clip-rule="nonzero"/></clipPath><clipPath id="a5c67aaa43"><path d="M 255 107.800781 L 267 107.800781 L 267 133.28125 L 255 133.28125 Z M 255 107.800781 " clip-rule="nonzero"/></clipPath></defs><g clip-path="url(#e6b2d6ff9b)"><path fill="#ffffff" d="M 0.121094 0 L 299.878906 0 L 299.878906 306.5 L 0.121094 306.5 Z M 0.121094 0 " fill-opacity="1" fill-rule="nonzero"/><path fill="#2c2c2c" d="M 0.121094 0 L 299.878906 0 L 299.878906 306.5 L 0.121094 306.5 Z M 0.121094 0 " fill-opacity="1" fill-rule="nonzero"/></g><g fill="#9102d4" fill-opacity="1"><g transform="translate(11.320112, 182.576528)"><g><path d="M 1.75 -18.421875 C 1.445312 -19.773438 1.460938 -20.648438 1.796875 -21.046875 C 2.128906 -21.453125 2.910156 -21.804688 4.140625 -22.109375 C 4.578125 -23.890625 4.976562 -25.578125 5.34375 -27.171875 C 5.707031 -28.773438 6.078125 -30.347656 6.453125 -31.890625 C 7.492188 -36.304688 8.488281 -40.25 9.4375 -43.71875 C 10.394531 -47.195312 11.285156 -50.316406 12.109375 -53.078125 C 12.941406 -55.835938 13.726562 -58.320312 14.46875 -60.53125 C 15.207031 -62.75 15.914062 -64.8125 16.59375 -66.71875 C 17.257812 -67.207031 17.929688 -67.585938 18.609375 -67.859375 C 19.285156 -68.140625 19.929688 -68.375 20.546875 -68.5625 C 21.222656 -68.800781 21.929688 -68.984375 22.671875 -69.109375 C 23.285156 -69.171875 23.835938 -69.171875 24.328125 -69.109375 C 24.753906 -69.046875 25.117188 -68.921875 25.421875 -68.734375 C 25.734375 -68.554688 25.921875 -68.28125 25.984375 -67.90625 C 23.648438 -61.707031 21.640625 -55.960938 19.953125 -50.671875 C 18.265625 -45.390625 16.863281 -40.816406 15.75 -36.953125 C 14.46875 -32.398438 13.394531 -28.253906 12.53125 -24.515625 C 15.476562 -25.679688 18.316406 -27.351562 21.046875 -29.53125 C 23.785156 -31.707031 26.289062 -34.132812 28.5625 -36.8125 C 30.832031 -39.488281 32.875 -42.285156 34.6875 -45.203125 C 36.5 -48.117188 37.957031 -50.925781 39.0625 -53.625 C 40.175781 -56.332031 40.929688 -58.820312 41.328125 -61.09375 C 41.722656 -63.363281 41.644531 -65.175781 41.09375 -66.53125 C 42.570312 -67.207031 43.957031 -67.726562 45.25 -68.09375 C 45.925781 -68.34375 46.570312 -68.53125 47.1875 -68.65625 C 48.78125 -69.082031 49.773438 -68.816406 50.171875 -67.859375 C 50.578125 -66.910156 50.71875 -65.484375 50.59375 -63.578125 C 50.40625 -59.222656 49.3125 -54.953125 47.3125 -50.765625 C 45.320312 -46.585938 42.789062 -42.671875 39.71875 -39.015625 C 36.644531 -35.367188 33.25 -32.097656 29.53125 -29.203125 C 25.8125 -26.316406 22.140625 -24.046875 18.515625 -22.390625 C 19.566406 -22.515625 20.582031 -22.609375 21.5625 -22.671875 C 22.539062 -22.734375 23.460938 -22.765625 24.328125 -22.765625 C 25.984375 -22.765625 27.515625 -22.59375 28.921875 -22.25 C 30.335938 -21.914062 31.582031 -21.347656 32.65625 -20.546875 C 33.738281 -19.742188 34.570312 -18.695312 35.15625 -17.40625 C 35.738281 -16.125 36 -14.53125 35.9375 -12.625 C 35.8125 -9.675781 35.410156 -7.0625 34.734375 -4.78125 C 34.054688 -2.507812 33.332031 -0.410156 32.5625 1.515625 C 31.800781 3.453125 31.082031 5.25 30.40625 6.90625 C 29.726562 8.570312 29.359375 10.265625 29.296875 11.984375 C 29.234375 13.703125 29.476562 15.128906 30.03125 16.265625 C 30.59375 17.398438 31.316406 18.320312 32.203125 19.03125 C 33.097656 19.738281 34.035156 20.242188 35.015625 20.546875 C 35.992188 20.859375 36.914062 21.015625 37.78125 21.015625 C 38.820312 21.015625 39.957031 20.90625 41.1875 20.6875 C 42.414062 20.46875 43.492188 20.207031 44.421875 19.90625 C 44.785156 19.78125 45.070312 19.867188 45.28125 20.171875 C 45.5 20.484375 45.609375 20.765625 45.609375 21.015625 C 45.609375 21.253906 45.453125 21.695312 45.140625 22.34375 C 44.835938 22.988281 44.257812 23.492188 43.40625 23.859375 C 42.539062 24.296875 41.429688 24.726562 40.078125 25.15625 C 38.734375 25.582031 36.894531 25.796875 34.5625 25.796875 C 33.019531 25.796875 31.421875 25.441406 29.765625 24.734375 C 28.109375 24.035156 26.601562 23.054688 25.25 21.796875 C 23.894531 20.535156 22.785156 19.070312 21.921875 17.40625 C 21.066406 15.75 20.703125 13.972656 20.828125 12.078125 C 20.890625 10.046875 21.253906 8.015625 21.921875 5.984375 C 22.597656 3.960938 23.320312 2 24.09375 0.09375 C 24.863281 -1.8125 25.570312 -3.640625 26.21875 -5.390625 C 26.863281 -7.140625 27.21875 -8.785156 27.28125 -10.328125 C 27.394531 -13.085938 26.6875 -15.15625 25.15625 -16.53125 C 23.625 -17.914062 21.015625 -18.609375 17.328125 -18.609375 C 16.097656 -18.609375 14.941406 -18.546875 13.859375 -18.421875 C 12.785156 -18.304688 11.910156 -18.1875 11.234375 -18.0625 C 9.578125 -9.707031 8.441406 -3.410156 7.828125 0.828125 C 7.210938 5.066406 6.875 7.832031 6.8125 9.125 L 6.8125 10.78125 C 6.8125 11.269531 6.84375 11.773438 6.90625 12.296875 C 6.96875 12.816406 7.0625 13.328125 7.1875 13.828125 C 6.082031 14.617188 4.988281 15.210938 3.90625 15.609375 C 2.832031 16.015625 1.867188 16.3125 1.015625 16.5 C -0.0234375 16.738281 -0.976562 16.859375 -1.84375 16.859375 C -2.269531 16.859375 -2.671875 16.796875 -3.046875 16.671875 C -3.347656 16.554688 -3.664062 16.4375 -4 16.3125 C -4.34375 16.1875 -4.578125 15.972656 -4.703125 15.671875 C -3.710938 11.546875 -2.753906 7.578125 -1.828125 3.765625 C -0.910156 -0.0351562 -0.117188 -3.441406 0.546875 -6.453125 C 1.347656 -9.890625 2.117188 -13.175781 2.859375 -16.3125 C 2.609375 -16.550781 2.390625 -16.820312 2.203125 -17.125 C 2.023438 -17.4375 1.875 -17.867188 1.75 -18.421875 Z M 1.75 -18.421875 "/></g></g></g><g fill="#9102d4" fill-opacity="1"><g transform="translate(58.220079, 182.576528)"><g><path d="M -3.5 -0.453125 C -3.925781 0.210938 -4.398438 0.65625 -4.921875 0.875 C -5.453125 1.09375 -5.914062 1.125 -6.3125 0.96875 C -6.707031 0.8125 -6.96875 0.488281 -7.09375 0 C -7.21875 -0.488281 -7.097656 -1.101562 -6.734375 -1.84375 C -6.546875 -2.207031 -6.128906 -3.035156 -5.484375 -4.328125 C -4.835938 -5.617188 -4.066406 -7.171875 -3.171875 -8.984375 C -2.285156 -10.796875 -1.316406 -12.757812 -0.265625 -14.875 C 0.773438 -17 1.769531 -19.015625 2.71875 -20.921875 C 3.664062 -22.828125 4.539062 -24.53125 5.34375 -26.03125 C 6.144531 -27.539062 6.726562 -28.628906 7.09375 -29.296875 C 6.414062 -29.910156 5.953125 -30.351562 5.703125 -30.625 C 5.460938 -30.90625 5.28125 -31.507812 5.15625 -32.4375 C 5.03125 -33.238281 5.210938 -34.28125 5.703125 -35.5625 C 6.203125 -36.851562 6.847656 -38.097656 7.640625 -39.296875 C 8.441406 -40.492188 9.332031 -41.519531 10.3125 -42.375 C 11.300781 -43.238281 12.253906 -43.671875 13.171875 -43.671875 C 14.890625 -43.671875 16.101562 -43.117188 16.8125 -42.015625 C 17.519531 -40.910156 17.9375 -39.773438 18.0625 -38.609375 C 18.1875 -37.804688 18.125 -36.789062 17.875 -35.5625 C 17.632812 -34.332031 17.175781 -33.226562 16.5 -32.25 C 16.675781 -32.125 16.914062 -31.984375 17.21875 -31.828125 C 17.53125 -31.679688 18.023438 -31.609375 18.703125 -31.609375 C 19.691406 -31.609375 20.382812 -31.664062 20.78125 -31.78125 C 21.175781 -31.90625 21.804688 -31.96875 22.671875 -31.96875 C 23.710938 -31.96875 24.570312 -31.707031 25.25 -31.1875 C 25.925781 -30.664062 26.476562 -30.019531 26.90625 -29.25 C 27.332031 -28.488281 27.65625 -27.660156 27.875 -26.765625 C 28.09375 -25.878906 28.234375 -25.066406 28.296875 -24.328125 C 28.472656 -22.785156 28.066406 -21.1875 27.078125 -19.53125 C 26.097656 -17.875 24.90625 -16.0625 23.5 -14.09375 C 22.632812 -12.863281 21.769531 -11.476562 20.90625 -9.9375 C 20.050781 -8.40625 19.6875 -7.03125 19.8125 -5.8125 C 19.9375 -5.007812 20.148438 -4.363281 20.453125 -3.875 C 20.765625 -3.382812 21.625 -3.140625 23.03125 -3.140625 C 24.082031 -3.140625 25.234375 -3.519531 26.484375 -4.28125 C 27.742188 -5.050781 29.035156 -6.035156 30.359375 -7.234375 C 31.679688 -8.429688 32.988281 -9.75 34.28125 -11.1875 C 35.570312 -12.632812 36.769531 -14.050781 37.875 -15.4375 C 38.976562 -16.820312 39.910156 -18.066406 40.671875 -19.171875 C 41.441406 -20.273438 42.015625 -21.070312 42.390625 -21.5625 C 42.691406 -22.050781 43.085938 -22.390625 43.578125 -22.578125 C 44.078125 -22.765625 44.507812 -22.765625 44.875 -22.578125 C 45.238281 -22.390625 45.46875 -22.019531 45.5625 -21.46875 C 45.65625 -20.914062 45.425781 -20.179688 44.875 -19.265625 C 44.507812 -18.648438 43.878906 -17.664062 42.984375 -16.3125 C 42.097656 -14.957031 41.023438 -13.453125 39.765625 -11.796875 C 38.503906 -10.140625 37.101562 -8.429688 35.5625 -6.671875 C 34.03125 -4.921875 32.421875 -3.320312 30.734375 -1.875 C 29.046875 -0.4375 27.351562 0.738281 25.65625 1.65625 C 23.96875 2.582031 22.359375 3.046875 20.828125 3.046875 C 19.222656 3.046875 17.898438 2.738281 16.859375 2.125 C 15.816406 1.507812 14.972656 0.757812 14.328125 -0.125 C 13.679688 -1.019531 13.21875 -2.003906 12.9375 -3.078125 C 12.664062 -4.160156 12.5625 -5.160156 12.625 -6.078125 C 12.6875 -6.816406 12.882812 -7.597656 13.21875 -8.421875 C 13.5625 -9.253906 13.960938 -10.113281 14.421875 -11 C 14.878906 -11.894531 15.367188 -12.785156 15.890625 -13.671875 C 16.410156 -14.566406 16.890625 -15.445312 17.328125 -16.3125 C 18.367188 -18.09375 19.210938 -19.613281 19.859375 -20.875 C 20.503906 -22.132812 20.828125 -23.191406 20.828125 -24.046875 C 20.828125 -24.597656 20.703125 -25.085938 20.453125 -25.515625 C 20.210938 -25.953125 19.816406 -26.171875 19.265625 -26.171875 C 18.890625 -26.171875 18.625 -26.15625 18.46875 -26.125 C 18.320312 -26.09375 18.171875 -26.078125 18.015625 -26.078125 C 17.859375 -26.078125 17.640625 -26.0625 17.359375 -26.03125 C 17.085938 -26 16.675781 -25.984375 16.125 -25.984375 C 15.320312 -25.984375 14.644531 -26.101562 14.09375 -26.34375 C 13.539062 -26.59375 13.019531 -26.78125 12.53125 -26.90625 C 12.28125 -26.476562 11.722656 -25.554688 10.859375 -24.140625 C 10.003906 -22.722656 9.007812 -21.0625 7.875 -19.15625 C 6.738281 -17.257812 5.539062 -15.265625 4.28125 -13.171875 C 3.019531 -11.085938 1.835938 -9.140625 0.734375 -7.328125 C -0.367188 -5.515625 -1.300781 -3.976562 -2.0625 -2.71875 C -2.832031 -1.457031 -3.3125 -0.703125 -3.5 -0.453125 Z M -3.5 -0.453125 "/></g></g></g><g fill="#9102d4" fill-opacity="1"><g transform="translate(96.550897, 182.576528)"><g><path d="M 20.265625 -54.28125 C 20.085938 -53.601562 19.734375 -52.941406 19.203125 -52.296875 C 18.679688 -51.648438 18.097656 -51.125 17.453125 -50.71875 C 16.816406 -50.320312 16.160156 -50.0625 15.484375 -49.9375 C 14.804688 -49.820312 14.253906 -49.945312 13.828125 -50.3125 C 12.535156 -51.289062 11.859375 -52.347656 11.796875 -53.484375 C 11.734375 -54.628906 12.007812 -55.707031 12.625 -56.71875 C 13.238281 -57.726562 14.003906 -58.585938 14.921875 -59.296875 C 15.847656 -60.003906 16.648438 -60.421875 17.328125 -60.546875 C 18.003906 -60.660156 18.570312 -60.519531 19.03125 -60.125 C 19.488281 -59.726562 19.835938 -59.207031 20.078125 -58.5625 C 20.328125 -57.914062 20.46875 -57.191406 20.5 -56.390625 C 20.53125 -55.597656 20.453125 -54.894531 20.265625 -54.28125 Z M 7.5625 -34.640625 C 7.863281 -35.015625 8.441406 -35.320312 9.296875 -35.5625 C 10.160156 -35.8125 11.050781 -36.007812 11.96875 -36.15625 C 12.894531 -36.3125 13.742188 -36.40625 14.515625 -36.4375 C 15.285156 -36.46875 15.726562 -36.453125 15.84375 -36.390625 C 15.90625 -36.335938 15.75 -35.695312 15.375 -34.46875 C 15.007812 -33.238281 14.550781 -31.789062 14 -30.125 C 13.445312 -28.46875 12.863281 -26.765625 12.25 -25.015625 C 11.632812 -23.265625 11.175781 -21.835938 10.875 -20.734375 C 10.5625 -19.628906 10.191406 -18.382812 9.765625 -17 C 9.335938 -15.613281 8.953125 -14.257812 8.609375 -12.9375 C 8.273438 -11.625 8.046875 -10.382812 7.921875 -9.21875 C 7.796875 -8.050781 7.890625 -7.160156 8.203125 -6.546875 C 8.503906 -5.804688 8.835938 -5.296875 9.203125 -5.015625 C 9.578125 -4.742188 9.976562 -4.609375 10.40625 -4.609375 C 11.632812 -4.609375 13.1875 -5.28125 15.0625 -6.625 C 16.9375 -7.976562 18.84375 -9.59375 20.78125 -11.46875 C 22.71875 -13.34375 24.515625 -15.25 26.171875 -17.1875 C 27.828125 -19.125 29.054688 -20.675781 29.859375 -21.84375 C 30.347656 -22.457031 30.851562 -22.851562 31.375 -23.03125 C 31.894531 -23.21875 32.320312 -23.1875 32.65625 -22.9375 C 33 -22.695312 33.1875 -22.300781 33.21875 -21.75 C 33.25 -21.195312 33.050781 -20.550781 32.625 -19.8125 C 31.632812 -18.09375 30.1875 -16.050781 28.28125 -13.6875 C 26.382812 -11.320312 24.359375 -9.046875 22.203125 -6.859375 C 20.054688 -4.679688 17.953125 -2.820312 15.890625 -1.28125 C 13.835938 0.25 12.164062 1.046875 10.875 1.109375 C 9.832031 1.171875 8.800781 1 7.78125 0.59375 C 6.769531 0.195312 5.847656 -0.351562 5.015625 -1.0625 C 4.191406 -1.769531 3.503906 -2.597656 2.953125 -3.546875 C 2.398438 -4.492188 2.09375 -5.492188 2.03125 -6.546875 C 1.84375 -8.078125 1.835938 -10.175781 2.015625 -12.84375 C 2.203125 -15.519531 2.539062 -18.253906 3.03125 -21.046875 C 3.53125 -23.847656 4.160156 -26.503906 4.921875 -29.015625 C 5.691406 -31.535156 6.570312 -33.410156 7.5625 -34.640625 Z M 7.5625 -34.640625 "/></g></g></g><g fill="#9102d4" fill-opacity="1"><g transform="translate(122.442628, 182.576528)"><g><path d="M 13 -3.140625 C 13.363281 -2.890625 13.835938 -2.765625 14.421875 -2.765625 C 15.003906 -2.765625 15.585938 -2.882812 16.171875 -3.125 C 16.753906 -3.375 17.304688 -3.710938 17.828125 -4.140625 C 18.347656 -4.578125 18.734375 -5.132812 18.984375 -5.8125 C 19.222656 -6.476562 19.21875 -7.441406 18.96875 -8.703125 C 18.726562 -9.960938 18.347656 -11.3125 17.828125 -12.75 C 17.304688 -14.195312 16.738281 -15.65625 16.125 -17.125 C 15.507812 -18.601562 14.988281 -19.957031 14.5625 -21.1875 C 14.1875 -22.113281 13.878906 -22.976562 13.640625 -23.78125 C 13.390625 -24.445312 13.15625 -25.101562 12.9375 -25.75 C 12.726562 -26.394531 12.5625 -26.84375 12.4375 -27.09375 C 12.132812 -26.601562 11.597656 -25.800781 10.828125 -24.6875 C 10.054688 -23.582031 9.222656 -22.429688 8.328125 -21.234375 C 7.441406 -20.035156 6.597656 -18.929688 5.796875 -17.921875 C 5.003906 -16.910156 4.453125 -16.21875 4.140625 -15.84375 C 3.648438 -15.289062 3.175781 -14.96875 2.71875 -14.875 C 2.257812 -14.789062 1.875 -14.882812 1.5625 -15.15625 C 1.257812 -15.4375 1.09375 -15.835938 1.0625 -16.359375 C 1.03125 -16.878906 1.257812 -17.507812 1.75 -18.25 C 2.113281 -18.738281 2.664062 -19.519531 3.40625 -20.59375 C 4.144531 -21.664062 4.882812 -22.769531 5.625 -23.90625 C 6.363281 -25.039062 7.035156 -26.054688 7.640625 -26.953125 C 8.253906 -27.847656 8.59375 -28.382812 8.65625 -28.5625 C 8.78125 -29.050781 8.613281 -29.695312 8.15625 -30.5 C 7.695312 -31.300781 7.617188 -32.222656 7.921875 -33.265625 C 8.171875 -34.128906 8.722656 -35.128906 9.578125 -36.265625 C 10.441406 -37.398438 11.457031 -38.425781 12.625 -39.34375 C 13.789062 -40.269531 14.988281 -40.960938 16.21875 -41.421875 C 17.445312 -41.878906 18.550781 -41.863281 19.53125 -41.375 C 20.332031 -40.882812 20.976562 -40.347656 21.46875 -39.765625 C 21.957031 -39.179688 22.140625 -38.582031 22.015625 -37.96875 C 21.898438 -37.65625 21.71875 -37.253906 21.46875 -36.765625 C 21.226562 -36.273438 20.859375 -35.675781 20.359375 -34.96875 C 19.867188 -34.257812 19.164062 -33.351562 18.25 -32.25 C 18.425781 -30.832031 18.679688 -29.539062 19.015625 -28.375 C 19.359375 -27.207031 19.6875 -26.195312 20 -25.34375 C 20.363281 -24.300781 20.757812 -23.347656 21.1875 -22.484375 C 21.738281 -21.378906 22.320312 -20.242188 22.9375 -19.078125 C 23.550781 -17.910156 24.101562 -16.757812 24.59375 -15.625 C 25.09375 -14.488281 25.492188 -13.425781 25.796875 -12.4375 C 26.109375 -11.457031 26.203125 -10.628906 26.078125 -9.953125 C 25.890625 -8.910156 25.347656 -7.648438 24.453125 -6.171875 C 23.566406 -4.703125 22.460938 -3.273438 21.140625 -1.890625 C 19.828125 -0.503906 18.320312 0.675781 16.625 1.65625 C 14.9375 2.644531 13.171875 3.140625 11.328125 3.140625 C 10.046875 3.140625 8.804688 2.738281 7.609375 1.9375 C 6.410156 1.132812 5.394531 0.195312 4.5625 -0.875 C 3.726562 -1.945312 3.113281 -3.003906 2.71875 -4.046875 C 2.320312 -5.097656 2.273438 -5.898438 2.578125 -6.453125 C 2.953125 -7.191406 3.289062 -7.773438 3.59375 -8.203125 C 3.894531 -8.628906 4.351562 -9.117188 4.96875 -9.671875 C 5.21875 -9.859375 5.523438 -10.078125 5.890625 -10.328125 C 6.203125 -10.503906 6.632812 -10.6875 7.1875 -10.875 C 7.738281 -11.0625 8.382812 -11.273438 9.125 -11.515625 C 9.738281 -9.609375 10.289062 -8.117188 10.78125 -7.046875 C 11.269531 -5.972656 11.671875 -5.128906 11.984375 -4.515625 C 12.347656 -3.835938 12.6875 -3.378906 13 -3.140625 Z M 13 -3.140625 "/></g></g></g><g fill="#9102d4" fill-opacity="1"><g transform="translate(155.613528, 182.576528)"><g><path d="M 34 -23.3125 C 34.25 -23.675781 34.570312 -23.90625 34.96875 -24 C 35.363281 -24.09375 35.6875 -24.046875 35.9375 -23.859375 C 36.1875 -23.679688 36.320312 -23.375 36.34375 -22.9375 C 36.375 -22.507812 36.207031 -21.925781 35.84375 -21.1875 C 34.613281 -18.851562 33 -16.332031 31 -13.625 C 29.007812 -10.925781 26.90625 -8.394531 24.6875 -6.03125 C 22.476562 -3.664062 20.328125 -1.710938 18.234375 -0.171875 C 16.148438 1.359375 14.40625 2.125 13 2.125 C 10.96875 2.125 9.273438 1.722656 7.921875 0.921875 C 6.566406 0.117188 5.503906 -0.863281 4.734375 -2.03125 C 3.972656 -3.195312 3.4375 -4.46875 3.125 -5.84375 C 2.820312 -7.226562 2.734375 -8.503906 2.859375 -9.671875 C 2.921875 -10.660156 3.132812 -12.425781 3.5 -14.96875 C 3.863281 -17.519531 4.351562 -20.46875 4.96875 -23.8125 C 5.582031 -27.164062 6.273438 -30.757812 7.046875 -34.59375 C 7.816406 -38.4375 8.628906 -42.140625 9.484375 -45.703125 C 8.441406 -45.578125 7.398438 -45.453125 6.359375 -45.328125 C 5.316406 -45.210938 4.363281 -45.15625 3.5 -45.15625 C 1.53125 -45.15625 -0.328125 -45.382812 -2.078125 -45.84375 C -3.828125 -46.300781 -5.128906 -46.75 -5.984375 -47.1875 C -6.484375 -47.425781 -6.703125 -47.773438 -6.640625 -48.234375 C -6.578125 -48.703125 -6.390625 -49.164062 -6.078125 -49.625 C -5.773438 -50.082031 -5.390625 -50.476562 -4.921875 -50.8125 C -4.460938 -51.15625 -4.050781 -51.328125 -3.6875 -51.328125 C -2.519531 -51.203125 -1.257812 -51.09375 0.09375 -51 C 1.445312 -50.90625 2.921875 -50.890625 4.515625 -50.953125 C 5.679688 -51.015625 6.800781 -51.109375 7.875 -51.234375 C 8.945312 -51.359375 10.007812 -51.507812 11.0625 -51.6875 C 11.851562 -54.644531 12.632812 -57.210938 13.40625 -59.390625 C 14.175781 -61.566406 14.867188 -63.085938 15.484375 -63.953125 C 15.660156 -64.253906 16.070312 -64.515625 16.71875 -64.734375 C 17.363281 -64.953125 18.054688 -65.101562 18.796875 -65.1875 C 19.535156 -65.28125 20.242188 -65.28125 20.921875 -65.1875 C 21.597656 -65.101562 22.085938 -64.875 22.390625 -64.5 C 22.703125 -64.007812 22.828125 -62.75 22.765625 -60.71875 C 22.703125 -58.695312 22.363281 -56.117188 21.75 -52.984375 C 24.320312 -52.984375 26.609375 -52.84375 28.609375 -52.5625 C 30.609375 -52.289062 32.3125 -51.984375 33.71875 -51.640625 C 35.132812 -51.304688 36.269531 -50.96875 37.125 -50.625 C 37.988281 -50.289062 38.640625 -50.0625 39.078125 -49.9375 C 39.503906 -49.820312 39.734375 -49.515625 39.765625 -49.015625 C 39.796875 -48.523438 39.703125 -48.019531 39.484375 -47.5 C 39.265625 -46.976562 38.910156 -46.53125 38.421875 -46.15625 C 37.929688 -45.789062 37.378906 -45.671875 36.765625 -45.796875 C 36.148438 -45.859375 35.457031 -45.976562 34.6875 -46.15625 C 33.925781 -46.34375 33.003906 -46.5 31.921875 -46.625 C 30.847656 -46.75 29.570312 -46.875 28.09375 -47 C 26.625 -47.125 24.90625 -47.1875 22.9375 -47.1875 C 22.570312 -47.1875 22.160156 -47.171875 21.703125 -47.140625 C 21.242188 -47.109375 20.765625 -47.09375 20.265625 -47.09375 C 20.023438 -46.101562 19.796875 -45.128906 19.578125 -44.171875 C 19.367188 -43.222656 19.078125 -42.226562 18.703125 -41.1875 C 17.910156 -38.726562 16.988281 -36.054688 15.9375 -33.171875 C 15.019531 -30.648438 13.914062 -27.757812 12.625 -24.5 C 11.332031 -21.25 9.890625 -17.78125 8.296875 -14.09375 C 7.921875 -11.457031 7.960938 -9.445312 8.421875 -8.0625 C 8.890625 -6.675781 9.460938 -5.675781 10.140625 -5.0625 C 10.929688 -4.382812 11.910156 -4.019531 13.078125 -3.96875 C 14.003906 -3.84375 15.125 -4.160156 16.4375 -4.921875 C 17.757812 -5.691406 19.128906 -6.722656 20.546875 -8.015625 C 21.960938 -9.304688 23.390625 -10.71875 24.828125 -12.25 C 26.273438 -13.789062 27.613281 -15.296875 28.84375 -16.765625 C 30.070312 -18.242188 31.144531 -19.582031 32.0625 -20.78125 C 32.988281 -21.976562 33.632812 -22.820312 34 -23.3125 Z M 34 -23.3125 "/></g></g></g><g fill="#9102d4" fill-opacity="1"><g transform="translate(184.085218, 182.576528)"><g><path d="M 20.265625 -54.28125 C 20.085938 -53.601562 19.734375 -52.941406 19.203125 -52.296875 C 18.679688 -51.648438 18.097656 -51.125 17.453125 -50.71875 C 16.816406 -50.320312 16.160156 -50.0625 15.484375 -49.9375 C 14.804688 -49.820312 14.253906 -49.945312 13.828125 -50.3125 C 12.535156 -51.289062 11.859375 -52.347656 11.796875 -53.484375 C 11.734375 -54.628906 12.007812 -55.707031 12.625 -56.71875 C 13.238281 -57.726562 14.003906 -58.585938 14.921875 -59.296875 C 15.847656 -60.003906 16.648438 -60.421875 17.328125 -60.546875 C 18.003906 -60.660156 18.570312 -60.519531 19.03125 -60.125 C 19.488281 -59.726562 19.835938 -59.207031 20.078125 -58.5625 C 20.328125 -57.914062 20.46875 -57.191406 20.5 -56.390625 C 20.53125 -55.597656 20.453125 -54.894531 20.265625 -54.28125 Z M 7.5625 -34.640625 C 7.863281 -35.015625 8.441406 -35.320312 9.296875 -35.5625 C 10.160156 -35.8125 11.050781 -36.007812 11.96875 -36.15625 C 12.894531 -36.3125 13.742188 -36.40625 14.515625 -36.4375 C 15.285156 -36.46875 15.726562 -36.453125 15.84375 -36.390625 C 15.90625 -36.335938 15.75 -35.695312 15.375 -34.46875 C 15.007812 -33.238281 14.550781 -31.789062 14 -30.125 C 13.445312 -28.46875 12.863281 -26.765625 12.25 -25.015625 C 11.632812 -23.265625 11.175781 -21.835938 10.875 -20.734375 C 10.5625 -19.628906 10.191406 -18.382812 9.765625 -17 C 9.335938 -15.613281 8.953125 -14.257812 8.609375 -12.9375 C 8.273438 -11.625 8.046875 -10.382812 7.921875 -9.21875 C 7.796875 -8.050781 7.890625 -7.160156 8.203125 -6.546875 C 8.503906 -5.804688 8.835938 -5.296875 9.203125 -5.015625 C 9.578125 -4.742188 9.976562 -4.609375 10.40625 -4.609375 C 11.632812 -4.609375 13.1875 -5.28125 15.0625 -6.625 C 16.9375 -7.976562 18.84375 -9.59375 20.78125 -11.46875 C 22.71875 -13.34375 24.515625 -15.25 26.171875 -17.1875 C 27.828125 -19.125 29.054688 -20.675781 29.859375 -21.84375 C 30.347656 -22.457031 30.851562 -22.851562 31.375 -23.03125 C 31.894531 -23.21875 32.320312 -23.1875 32.65625 -22.9375 C 33 -22.695312 33.1875 -22.300781 33.21875 -21.75 C 33.25 -21.195312 33.050781 -20.550781 32.625 -19.8125 C 31.632812 -18.09375 30.1875 -16.050781 28.28125 -13.6875 C 26.382812 -11.320312 24.359375 -9.046875 22.203125 -6.859375 C 20.054688 -4.679688 17.953125 -2.820312 15.890625 -1.28125 C 13.835938 0.25 12.164062 1.046875 10.875 1.109375 C 9.832031 1.171875 8.800781 1 7.78125 0.59375 C 6.769531 0.195312 5.847656 -0.351562 5.015625 -1.0625 C 4.191406 -1.769531 3.503906 -2.597656 2.953125 -3.546875 C 2.398438 -4.492188 2.09375 -5.492188 2.03125 -6.546875 C 1.84375 -8.078125 1.835938 -10.175781 2.015625 -12.84375 C 2.203125 -15.519531 2.539062 -18.253906 3.03125 -21.046875 C 3.53125 -23.847656 4.160156 -26.503906 4.921875 -29.015625 C 5.691406 -31.535156 6.570312 -33.410156 7.5625 -34.640625 Z M 7.5625 -34.640625 "/></g></g></g><g fill="#9102d4" fill-opacity="1"><g transform="translate(209.976949, 182.576528)"><g><path d="M 27.375 2.296875 C 25.957031 2.296875 24.738281 2.035156 23.71875 1.515625 C 22.707031 0.992188 21.894531 0.304688 21.28125 -0.546875 C 20.664062 -1.410156 20.265625 -2.410156 20.078125 -3.546875 C 19.898438 -4.679688 19.960938 -5.894531 20.265625 -7.1875 C 20.453125 -8.050781 20.757812 -9.203125 21.1875 -10.640625 C 21.625 -12.085938 22.070312 -13.65625 22.53125 -15.34375 C 22.988281 -17.03125 23.414062 -18.71875 23.8125 -20.40625 C 24.21875 -22.09375 24.476562 -23.628906 24.59375 -25.015625 C 24.71875 -26.398438 24.65625 -27.535156 24.40625 -28.421875 C 24.164062 -29.316406 23.648438 -29.765625 22.859375 -29.765625 C 21.867188 -29.765625 20.851562 -29.441406 19.8125 -28.796875 C 18.769531 -28.148438 17.707031 -27.273438 16.625 -26.171875 C 15.550781 -25.066406 14.476562 -23.789062 13.40625 -22.34375 C 12.332031 -20.90625 11.273438 -19.414062 10.234375 -17.875 C 9.679688 -15.789062 9.21875 -13.960938 8.84375 -12.390625 C 8.476562 -10.828125 8.15625 -9.414062 7.875 -8.15625 C 7.601562 -6.894531 7.34375 -5.785156 7.09375 -4.828125 C 6.851562 -3.878906 6.640625 -2.976562 6.453125 -2.125 C 6.265625 -1.507812 5.707031 -0.910156 4.78125 -0.328125 C 3.863281 0.253906 2.882812 0.726562 1.84375 1.09375 C 0.800781 1.46875 -0.101562 1.65625 -0.875 1.65625 C -1.644531 1.65625 -1.96875 1.378906 -1.84375 0.828125 C -1.78125 0.460938 -1.578125 -0.363281 -1.234375 -1.65625 C -0.898438 -2.945312 -0.503906 -4.46875 -0.046875 -6.21875 C 0.410156 -7.96875 0.882812 -9.828125 1.375 -11.796875 C 1.875 -13.765625 2.335938 -15.640625 2.765625 -17.421875 C 3.066406 -18.828125 3.40625 -20.390625 3.78125 -22.109375 C 4.082031 -23.585938 4.460938 -25.304688 4.921875 -27.265625 C 5.390625 -29.234375 5.929688 -31.382812 6.546875 -33.71875 C 6.972656 -34.09375 7.414062 -34.382812 7.875 -34.59375 C 8.332031 -34.8125 8.8125 -34.984375 9.3125 -35.109375 C 9.800781 -35.296875 10.320312 -35.421875 10.875 -35.484375 C 11.363281 -35.484375 11.851562 -35.453125 12.34375 -35.390625 C 12.78125 -35.328125 13.226562 -35.21875 13.6875 -35.0625 C 14.144531 -34.90625 14.554688 -34.675781 14.921875 -34.375 C 14.742188 -33.9375 14.53125 -33.332031 14.28125 -32.5625 C 14.039062 -31.800781 13.796875 -30.988281 13.546875 -30.125 C 13.296875 -29.144531 12.988281 -28.132812 12.625 -27.09375 C 13.425781 -28.195312 14.332031 -29.316406 15.34375 -30.453125 C 16.351562 -31.585938 17.457031 -32.613281 18.65625 -33.53125 C 19.851562 -34.457031 21.128906 -35.210938 22.484375 -35.796875 C 23.835938 -36.378906 25.21875 -36.671875 26.625 -36.671875 C 27.789062 -36.671875 28.832031 -36.332031 29.75 -35.65625 C 30.675781 -34.976562 31.398438 -34.039062 31.921875 -32.84375 C 32.453125 -31.644531 32.757812 -30.21875 32.84375 -28.5625 C 32.9375 -26.90625 32.707031 -25.09375 32.15625 -23.125 L 31.140625 -19.078125 C 30.835938 -17.785156 30.453125 -16.265625 29.984375 -14.515625 C 29.523438 -12.765625 28.960938 -10.84375 28.296875 -8.75 C 27.921875 -7.40625 27.78125 -6.238281 27.875 -5.25 C 27.96875 -4.269531 28.566406 -3.78125 29.671875 -3.78125 C 30.773438 -3.78125 32.171875 -4.453125 33.859375 -5.796875 C 35.546875 -7.148438 37.25 -8.78125 38.96875 -10.6875 C 40.695312 -12.59375 42.328125 -14.539062 43.859375 -16.53125 C 45.398438 -18.53125 46.566406 -20.144531 47.359375 -21.375 C 47.910156 -22.175781 48.429688 -22.695312 48.921875 -22.9375 C 49.421875 -23.1875 49.804688 -23.21875 50.078125 -23.03125 C 50.359375 -22.851562 50.5 -22.441406 50.5 -21.796875 C 50.5 -21.148438 50.253906 -20.332031 49.765625 -19.34375 C 49.328125 -18.488281 48.660156 -17.351562 47.765625 -15.9375 C 46.878906 -14.53125 45.820312 -13.023438 44.59375 -11.421875 C 43.363281 -9.828125 42.039062 -8.210938 40.625 -6.578125 C 39.21875 -4.953125 37.742188 -3.476562 36.203125 -2.15625 C 34.671875 -0.84375 33.148438 0.222656 31.640625 1.046875 C 30.140625 1.878906 28.71875 2.296875 27.375 2.296875 Z M 27.375 2.296875 "/></g></g></g><g fill="#9102d4" fill-opacity="1"><g transform="translate(253.559825, 182.576528)"><g><path d="M 41.75 -19.171875 C 39.90625 -16.460938 37.8125 -13.832031 35.46875 -11.28125 C 33.132812 -8.738281 30.660156 -6.46875 28.046875 -4.46875 C 25.441406 -2.46875 22.769531 -0.851562 20.03125 0.375 C 17.300781 1.601562 14.648438 2.21875 12.078125 2.21875 C 10.722656 2.21875 9.257812 1.894531 7.6875 1.25 C 6.125 0.601562 4.695312 -0.394531 3.40625 -1.75 C 2.113281 -3.101562 1.082031 -4.851562 0.3125 -7 C -0.445312 -9.15625 -0.675781 -11.765625 -0.375 -14.828125 C -0.125 -17.347656 0.660156 -20.003906 1.984375 -22.796875 C 3.304688 -25.597656 4.929688 -28.164062 6.859375 -30.5 C 8.796875 -32.832031 10.976562 -34.765625 13.40625 -36.296875 C 15.832031 -37.835938 18.273438 -38.609375 20.734375 -38.609375 C 23.066406 -38.609375 24.753906 -38.023438 25.796875 -36.859375 C 26.847656 -35.691406 27.3125 -34.25 27.1875 -32.53125 C 27 -30.625 26.457031 -28.867188 25.5625 -27.265625 C 24.675781 -25.671875 23.617188 -24.226562 22.390625 -22.9375 C 21.160156 -21.65625 19.851562 -20.488281 18.46875 -19.4375 C 17.09375 -18.394531 15.789062 -17.445312 14.5625 -16.59375 C 13.207031 -15.664062 11.914062 -14.785156 10.6875 -13.953125 C 9.457031 -13.128906 8.382812 -12.378906 7.46875 -11.703125 C 7.53125 -10.171875 7.804688 -8.878906 8.296875 -7.828125 C 8.785156 -6.785156 9.394531 -5.941406 10.125 -5.296875 C 10.863281 -4.648438 11.707031 -4.1875 12.65625 -3.90625 C 13.613281 -3.632812 14.585938 -3.5 15.578125 -3.5 C 17.660156 -3.5 19.835938 -4.160156 22.109375 -5.484375 C 24.390625 -6.804688 26.617188 -8.398438 28.796875 -10.265625 C 30.972656 -12.140625 33 -14.09375 34.875 -16.125 C 36.75 -18.15625 38.300781 -19.90625 39.53125 -21.375 C 39.957031 -21.863281 40.398438 -22.15625 40.859375 -22.25 C 41.328125 -22.34375 41.695312 -22.28125 41.96875 -22.0625 C 42.25 -21.851562 42.390625 -21.488281 42.390625 -20.96875 C 42.390625 -20.445312 42.175781 -19.847656 41.75 -19.171875 Z M 18.15625 -33.359375 C 17.414062 -33.359375 16.535156 -32.988281 15.515625 -32.25 C 14.503906 -31.507812 13.507812 -30.445312 12.53125 -29.0625 C 11.550781 -27.6875 10.628906 -26 9.765625 -24 C 8.910156 -22.007812 8.265625 -19.722656 7.828125 -17.140625 C 8.566406 -17.691406 9.363281 -18.257812 10.21875 -18.84375 C 11.082031 -19.425781 11.945312 -20.054688 12.8125 -20.734375 C 15.445312 -22.765625 17.285156 -24.546875 18.328125 -26.078125 C 19.378906 -27.609375 19.96875 -28.929688 20.09375 -30.046875 C 20.207031 -31.210938 20.082031 -32.054688 19.71875 -32.578125 C 19.351562 -33.097656 18.832031 -33.359375 18.15625 -33.359375 Z M 18.15625 -33.359375 "/></g></g></g><g clip-path="url(#8b8d795121)"><path fill="#a6a6a6" d="M 253.09375 127.949219 C 252.855469 127.949219 252.621094 127.859375 252.4375 127.675781 L 245.378906 120.605469 L 252.4375 113.53125 C 252.800781 113.167969 253.386719 113.167969 253.75 113.53125 C 254.113281 113.894531 254.113281 114.484375 253.75 114.847656 L 248.003906 120.605469 L 253.75 126.363281 C 254.113281 126.726562 254.113281 127.3125 253.75 127.675781 C 253.570312 127.859375 253.332031 127.949219 253.09375 127.949219 " fill-opacity="1" fill-rule="nonzero"/></g><g clip-path="url(#8e4d4dae2b)"><path fill="#a6a6a6" d="M 268.316406 127.949219 C 268.078125 127.949219 267.839844 127.859375 267.660156 127.675781 C 267.296875 127.3125 267.296875 126.726562 267.660156 126.363281 L 273.40625 120.605469 L 267.660156 114.847656 C 267.296875 114.484375 267.296875 113.894531 267.660156 113.53125 C 268.023438 113.167969 268.609375 113.167969 268.972656 113.53125 L 276.03125 120.605469 L 268.972656 127.675781 C 268.792969 127.859375 268.554688 127.949219 268.316406 127.949219 " fill-opacity="1" fill-rule="nonzero"/></g><g clip-path="url(#a5c67aaa43)"><path fill="#a6a6a6" d="M 256.542969 133.28125 C 256.425781 133.28125 256.308594 133.261719 256.195312 133.214844 C 255.71875 133.023438 255.488281 132.480469 255.679688 132.003906 L 265.105469 108.507812 C 265.296875 108.03125 265.835938 107.800781 266.3125 107.992188 C 266.789062 108.183594 267.019531 108.726562 266.828125 109.203125 L 257.402344 132.699219 C 257.257812 133.0625 256.910156 133.28125 256.542969 133.28125 " fill-opacity="1" fill-rule="nonzero"/></g></svg>